<?xml version="1.0" encoding="utf-8"?><!-- Generator: Adobe Illustrator 17.0.0, SVG Export Plug-In . SVG Version: 6.00 Build 0)  --><!DOCTYPE svg PUBLIC
        "-//W3C//DTD SVG 1.1//EN" "http://www.w3.org/Graphics/SVG/1.1/DTD/svg11.dtd">
<svg fill="#FFFFFF" xmlns="http://www.w3.org/2000/svg" xmlns:xlink="http://www.w3.org/1999/xlink" viewBox="0 0 50 50"
     width="50px" height="50px">
    <path d="M17,40v3c0,1.654,1.346,3,3,3h10c1.654,0,3-1.346,3-3v-3H17z"/>
<!--    <path d="M21,44v1c0,2.206,1.794,4,4,4s4-1.794,4-4v-1H21z"/>-->
    <path d="M25,3c-8.271,0-15,6.729-15,15c0,6.167,2.772,9.138,4.798,11.308C16.076,30.678,17,31.668,17,33v5h7V23.414l-3.707-3.707c-0.391-0.391-0.391-1.023,0-1.414s1.023-0.391,1.414,0L25,21.586l3.293-3.293c0.391-0.391,1.023-0.391,1.414,0s0.391,1.023,0,1.414L26,23.414V38h7v-5c0-1.916,1.102-3.066,2.496-4.522C37.503,26.382,40,23.773,40,18C40,9.729,33.271,3,25,3z"/>
</svg>
